<svg viewBox="92.284 121.023 47.897 9.55" xmlns="http://www.w3.org/2000/svg" xmlns:bx="https://boxy-svg.com">
  <path d="M 98.427 124.536 H 136.405 A 0.085 0.085 0 0 1 136.489 124.621 V 124.621 A 0.085 0.085 0 0 1 136.405 124.705 H 98.427 A 0.085 0.085 0 0 1 98.342 124.621 V 124.621 A 0.085 0.085 0 0 1 98.427 124.536 Z M 98.342 124.621 V 124.621 A 0.085 0.085 0 0 0 98.427 124.705 H 136.405 A 0.085 0.085 0 0 0 136.489 124.621 V 124.621 A 0.085 0.085 0 0 0 136.405 124.536 H 98.427 A 0.085 0.085 0 0 0 98.342 124.621 Z" style="fill: rgb(216, 216, 216); paint-order: fill; stroke: rgb(255, 255, 255);" bx:shape="frame 98.342 124.536 38.147 0.169 0 0 1.141 1.141 1.141 1.141 1@2992e83f"></path>
  <path d="M 102.664 127.292 H 140.459 A 2.692 2.692 0 0 1 143.15 129.983 V 129.984 A 2.692 2.692 0 0 1 140.459 132.675 H 102.664 A 2.692 2.692 0 0 1 99.972 129.984 V 129.983 A 2.692 2.692 0 0 1 102.664 127.292 Z M 99.972 129.983 V 129.984 A 2.692 2.692 0 0 0 102.664 132.675 H 140.459 A 2.692 2.692 0 0 0 143.15 129.984 V 129.983 A 2.692 2.692 0 0 0 140.459 127.292 H 102.664 A 2.692 2.692 0 0 0 99.972 129.983 Z" style="paint-order: fill; fill: rgb(229, 32, 32); stroke-width: 2px; stroke: rgb(85, 218, 207);" transform="matrix(1, 0, -0.658006, 1, 80.166748, -4.189964)" bx:shape="frame 99.972 127.292 43.178 5.383 0 0 3.35 3.35 3.35 3.35 1@dadddcff"></path>
  <line style="fill: rgb(216, 216, 216); isolation: isolate; stroke: rgb(235, 83, 83); transform-origin: 100.755px 122.885px; mix-blend-mode: color-dodge;" x1="98.689" y1="124.305" x2="102.82" y2="121.465">
  </line>
  <line style="fill: rgb(216, 216, 216); isolation: isolate; stroke: rgb(235, 83, 83); transform-origin: 104.362px 123.09px; mix-blend-mode: color-dodge;" x1="102.296" y1="124.51" x2="106.427" y2="121.67">
  </line>
  <line style="fill: rgb(216, 216, 216); isolation: isolate; stroke: rgb(235, 83, 83); transform-origin: 108.326px 123.068px; mix-blend-mode: color-dodge;" x1="106.26" y1="124.488" x2="110.391" y2="121.648">
  </line>
  <line style="fill: rgb(216, 216, 216); isolation: isolate; stroke: rgb(235, 83, 83); transform-origin: 112.395px 123.101px; mix-blend-mode: color-dodge;" x1="110.329" y1="124.521" x2="114.46" y2="121.681">
  </line>
  <line style="fill: rgb(216, 216, 216); isolation: isolate; stroke: rgb(235, 83, 83); transform-origin: 116.465px 123.101px; mix-blend-mode: color-dodge;" x1="114.399" y1="124.521" x2="118.53" y2="121.681">
  </line>
  <line style="fill: rgb(216, 216, 216); isolation: isolate; stroke: rgb(235, 83, 83); transform-origin: 120.429px 123.079px; mix-blend-mode: color-dodge;" x1="118.363" y1="124.499" x2="122.494" y2="121.659">
  </line>
  <line style="fill: rgb(216, 216, 216); isolation: isolate; stroke: rgb(235, 83, 83); transform-origin: 124.806px 123.182px; mix-blend-mode: color-dodge;" x1="122.74" y1="124.602" x2="126.871" y2="121.762">
  </line>
  <line style="fill: rgb(216, 216, 216); stroke: rgb(235, 83, 83); transform-origin: 128.876px 123.182px; isolation: isolate; filter: url(#drop-shadow-filter-0) url(#drop-shadow-filter-0) url(#point-light-filter-0); mix-blend-mode: color-dodge;" x1="126.81" y1="124.602" x2="130.941" y2="121.762">
  </line>
  <line style="fill: rgb(216, 216, 216); stroke: rgb(235, 83, 83); transform-origin: 132.84px 123.16px; mix-blend-mode: color-dodge; isolation: isolate;" x1="130.774" y1="124.58" x2="134.905" y2="121.74">
  </line>
  <path d="M 98.853 121.529 H 138.736 A 0.037 0.037 0 0 1 138.772 121.566 V 121.565 A 0.037 0.037 0 0 1 138.736 121.602 H 98.853 A 0.037 0.037 0 0 1 98.816 121.565 V 121.566 A 0.037 0.037 0 0 1 98.853 121.529 Z M 98.816 121.566 V 121.565 A 0.037 0.037 0 0 0 98.853 121.602 H 138.736 A 0.037 0.037 0 0 0 138.772 121.565 V 121.566 A 0.037 0.037 0 0 0 138.736 121.529 H 98.853 A 0.037 0.037 0 0 0 98.816 121.566 Z" style="fill: rgb(216, 216, 216); paint-order: fill; stroke: rgb(255, 255, 255);" bx:shape="frame 98.816 121.529 39.956 0.073 0 0 1.187 1.187 1.187 1.187 1@e77dd298"></path>
  <path style="paint-order: fill; stroke: rgb(134, 49, 49); fill: rgb(45, 204, 45); transform-box: fill-box; transform-origin: 50% 50%;" transform="matrix(0.010249, 0.08278, -0.08278, 0.010249, -1034.368137, -300.14523)" d="M 1165.891667501 404.42 L 1170.108332499 404.42 L 1171.86771597 408.437851436 A 17.983 17.983 0 0 1 1175.193723975 409.518536947 L 1178.978728923 407.302166512 L 1182.390082566 409.780660011 L 1181.451819874 414.065309762 A 17.983 17.983 0 0 1 1183.507405867 416.894581159 L 1187.87228905 417.3262699 L 1189.175310194 421.336556623 L 1185.897785796 424.251414113 A 17.983 17.983 0 0 1 1185.897785796 427.748585887 L 1189.175310194 430.663443377 L 1187.87228905 434.6737301 L 1183.507405867 435.105418841 A 17.983 17.983 0 0 1 1181.451819874 437.934690238 L 1182.390082566 442.219339989 L 1178.978728923 444.697833488 L 1175.193723975 442.481463053 A 17.983 17.983 0 0 1 1171.86771597 443.562148564 L 1170.108332499 447.58 L 1165.891667501 447.58 L 1164.13228403 443.562148564 A 17.983 17.983 0 0 1 1160.806276025 442.481463053 L 1157.021271077 444.697833488 L 1153.609917434 442.219339989 L 1154.548180126 437.934690238 A 17.983 17.983 0 0 1 1152.492594133 435.105418841 L 1148.12771095 434.6737301 L 1146.824689806 430.663443377 L 1150.102214204 427.748585887 A 17.983 17.983 0 0 1 1150.102214204 424.251414113 L 1146.824689806 421.336556623 L 1148.12771095 417.3262699 L 1152.492594133 416.894581159 A 17.983 17.983 0 0 1 1154.548180126 414.065309762 L 1153.609917434 409.780660011 L 1157.021271077 407.302166512 L 1160.806276025 409.518536947 A 17.983 17.983 0 0 1 1164.13228403 408.437851436 Z M 1168 414.011 A 11.989 11.989 0 0 0 1168 437.989 A 11.989 11.989 0 0 0 1168 414.011" bx:shape="cog 1168 426 11.989 17.983 21.58 0.38 10 1@10bd07a8">
  </path>
  <path style="stroke: rgb(0, 0, 0); paint-order: fill; fill: rgb(237, 12, 199); transform-box: fill-box; transform-origin: 50% 50%;" transform="matrix(0.010249, 0.08278, -0.08278, 0.010249, -1069.985042, -300.228644)" d="M 1165.891667501 404.42 L 1170.108332499 404.42 L 1171.86771597 408.437851436 A 17.983 17.983 0 0 1 1175.193723975 409.518536947 L 1178.978728923 407.302166512 L 1182.390082566 409.780660011 L 1181.451819874 414.065309762 A 17.983 17.983 0 0 1 1183.507405867 416.894581159 L 1187.87228905 417.3262699 L 1189.175310194 421.336556623 L 1185.897785796 424.251414113 A 17.983 17.983 0 0 1 1185.897785796 427.748585887 L 1189.175310194 430.663443377 L 1187.87228905 434.6737301 L 1183.507405867 435.105418841 A 17.983 17.983 0 0 1 1181.451819874 437.934690238 L 1182.390082566 442.219339989 L 1178.978728923 444.697833488 L 1175.193723975 442.481463053 A 17.983 17.983 0 0 1 1171.86771597 443.562148564 L 1170.108332499 447.58 L 1165.891667501 447.58 L 1164.13228403 443.562148564 A 17.983 17.983 0 0 1 1160.806276025 442.481463053 L 1157.021271077 444.697833488 L 1153.609917434 442.219339989 L 1154.548180126 437.934690238 A 17.983 17.983 0 0 1 1152.492594133 435.105418841 L 1148.12771095 434.6737301 L 1146.824689806 430.663443377 L 1150.102214204 427.748585887 A 17.983 17.983 0 0 1 1150.102214204 424.251414113 L 1146.824689806 421.336556623 L 1148.12771095 417.3262699 L 1152.492594133 416.894581159 A 17.983 17.983 0 0 1 1154.548180126 414.065309762 L 1153.609917434 409.780660011 L 1157.021271077 407.302166512 L 1160.806276025 409.518536947 A 17.983 17.983 0 0 1 1164.13228403 408.437851436 Z M 1168 414.011 A 11.989 11.989 0 0 0 1168 437.989 A 11.989 11.989 0 0 0 1168 414.011" bx:shape="cog 1168 426 11.989 17.983 21.58 0.38 10 1@10bd07a8">
  </path>
</svg>